<svg xmlns="http://www.w3.org/2000/svg" viewBox="0 0 120 120" width="120" height="120">
  <rect x="0" y="0" width="120" height="120" rx="24" fill="#2a2e37"/>
  <g transform="translate(10,36) scale(0.5)">
    <rect x="8" y="80" width="184" height="14" rx="6" fill="rgba(51,193,207,0.18)"/>
    <ellipse cx="62" cy="81" rx="20" ry="2.6" fill="rgba(51,193,207,0.32)"/>
    <ellipse cx="140" cy="81" rx="20" ry="2.6" fill="rgba(51,193,207,0.32)"/>
    <ellipse cx="66" cy="76" rx="20" ry="7" fill="#4a515e"/>
    <ellipse cx="134" cy="76" rx="20" ry="7" fill="#4a515e"/>
    <ellipse cx="66" cy="74" rx="20" ry="4" fill="#5a6270"/>
    <ellipse cx="134" cy="74" rx="20" ry="4" fill="#5a6270"/>
    <rect x="60" y="69" width="80" height="6" rx="3" fill="#3a414e"/>
    <rect x="74" y="13" width="52" height="30" rx="5" fill="#3a414e" stroke="#5a6270" stroke-width="1"/>
    <rect x="70" y="7" width="60" height="8" rx="4" fill="#5a6270"/>
    <circle cx="100" cy="11" r="2" fill="#33c1cf"/>
    <rect x="81" y="21" width="30" height="3" rx="1.5" fill="rgba(255,255,255,0.08)"/>
    <path d="M76 43 H124 L108 55 H92 Z" fill="#2f3540"/>
    <circle cx="100" cy="62" r="13" fill="#20252d" stroke="#33c1cf" stroke-width="1.5"/>
    <g>
      <path d="M100 61 C96.5 54 96.5 50 100 48 C103.5 50 103.5 54 100 61 Z" fill="#33c1cf" transform="rotate(0 100 62)"/>
      <path d="M100 61 C96.5 54 96.5 50 100 48 C103.5 50 103.5 54 100 61 Z" fill="#33c1cf" transform="rotate(120 100 62)"/>
      <path d="M100 61 C96.5 54 96.5 50 100 48 C103.5 50 103.5 54 100 61 Z" fill="#2aa7b6" transform="rotate(240 100 62)"/>
      <circle cx="100" cy="62" r="3.2" fill="#dff3f5"/>
    </g>
  </g>
</svg>
